<svg xmlns="http://www.w3.org/2000/svg"  viewBox="0 0 100 100" width="100px" height="100px" baseProfile="basic"><path fill="#ee3e54" d="M12.725,26.858c-1.105,0-2,0.895-2,2s0.895,2,2,2s2-0.895,2-2S13.83,26.858,12.725,26.858z"/><path fill="#f1bc19" d="M76.725,11.858c-0.551,0-1,0.449-1,1s0.449,1,1,1s1-0.449,1-1S77.276,11.858,76.725,11.858z"/><path fill="#fce0a2" d="M49.725,12.608c-20.434,0-37,16.566-37,37s16.566,37,37,37s37-16.566,37-37 S70.159,12.608,49.725,12.608z"/><path fill="#f1bc19" d="M82.725,10.858c-2.211,0-4,1.789-4,4s1.789,4,4,4s4-1.789,4-4S84.936,10.858,82.725,10.858z"/><path fill="#ee3e54" d="M86.725,21.858c-1.105,0-2,0.895-2,2s0.895,2,2,2s2-0.895,2-2S87.83,21.858,86.725,21.858z"/><path fill="#fbcd59" d="M80.725,73.858c-1.105,0-2,0.895-2,2s0.895,2,2,2s2-0.895,2-2S81.83,73.858,80.725,73.858z M14.725,58.858c-2.211,0-4,1.789-4,4s1.789,4,4,4s4-1.789,4-4S16.936,58.858,14.725,58.858z"/><path fill="#ee3e54" d="M24.725,84.858c-1.105,0-2,0.895-2,2s0.895,2,2,2s2-0.895,2-2S25.83,84.858,24.725,84.858z"/><path fill="#fff" d="M18.225,40.858c-1.379,0-2.5,1.121-2.5,2.5s1.121,2.5,2.5,2.5s2.5-1.121,2.5-2.5 S19.604,40.858,18.225,40.858z"/><path fill="#f1bc19" d="M20.725,64.858c-0.551,0-1,0.449-1,1s0.449,1,1,1s1-0.449,1-1S21.276,64.858,20.725,64.858z"/><path fill="#fff" d="M79.725,31.858c-0.551,0-1,0.449-1,1s0.449,1,1,1s1-0.449,1-1S80.276,31.858,79.725,31.858z"/><g><path fill="#1e65d6" d="M52.611,54.911l1.574-0.85c2.819-0.888,5.53-1.359,8.082-1.411 c0.372-0.018,0.768-0.027,1.168-0.027c2.645,0,5.226,0.419,7.67,1.245c1.907,0.613,4.471,1.667,4.585,3.683 c0.178,1.819-1.764,3.115-3.344,3.815l-8.79-2.745c0,0,3.283-1.118,2.896-1.723c-0.639-1-5.338,0.684-5.338,0.684L52.611,54.911z"/><path fill="#e55838" d="M44.5,66.207L44.304,28.83l0.838-0.685c3.207,0.669,6.521,1.576,10.742,2.939 c3.845,1.335,6.286,2.843,7.697,4.75c1.539,1.759,2.338,4.27,2.338,7.416c0,2.769-1.045,4.956-3.021,6.325 c-0.897,0.684-1.959,1.039-3.129,1.039c-1.174,0-2.476-0.348-3.98-1.063l-0.397-0.188L55.36,38.482 c0-1.389-0.582-2.48-1.415-2.658c-0.077-0.017-0.153-0.024-0.225-0.024c-0.656,0-1.01,0.741-1.01,1.438l-0.196,31.52L44.5,66.207z"/><polygon fill="#39c1d7" points="55.098,61.827 63.556,58.62 72.346,61.365 63.607,64.482"/><polygon fill="#39c1d7" points="52.611,54.911 61.115,57.582 52.565,60.607"/><polygon fill="#39c1d7" points="31.998,54.355 40.664,51.261 44.441,52.393 44.444,55.878 40.842,57.115"/><path fill="#ff991f" d="M44.455,57.613l-5.669,2.204c0,0-3.647,1-4.286,0c-0.387-0.605,2.828-1.522,2.828-1.522l3.513-1.18 l-8.843-2.76c0,0-2.398,0.901-3.061,1.175c-1.597,0.66-3.694,1.816-3.516,3.634c0.114,2.016,2.678,3.069,4.585,3.683 c2.444,0.826,5.025,1.245,7.67,1.245c0.4,0,0.796-0.01,1.168-0.027c1.81-0.037,3.689-0.292,5.641-0.75L44.455,57.613z"/><polygon fill="#ff991f" points="55.098,61.827 52.51,62.782 52.51,68.5 63.607,64.482"/><polygon fill="#1e65d6" points="40.664,51.261 44.415,50.056 44.441,52.393"/><g><path fill="#472b29" d="M45,28.83c3.02,0.63,6.21,1.48,10.67,2.92c3.57,1.24,5.98,2.65,7.35,4.5c1.51,1.73,2.2,4.113,2.2,7 c0,2.5-0.93,4.51-2.72,5.75c-0.818,0.622-1.723,0.914-2.73,0.914c-1.098,0-2.318-0.348-3.68-0.994l-0.03-10.44 c0-1.71-0.778-3.086-1.97-3.34c-0.128-0.027-0.251-0.04-0.37-0.04c-1.03,0-1.71,0.975-1.71,2.139V55.65l1.46-0.59l0.95-0.34 c2.7-0.85,5.33-1.32,7.86-1.37c0.381-0.018,0.767-0.028,1.156-0.028c2.395,0,4.924,0.356,7.444,1.208 c2.61,0.84,4.04,1.82,4.11,3.06c0.12,1.23-0.94,2.24-3.29,3.18l-19.69,7.246L45,65.641v-3.254c-1.31,0.33-2.57,0.603-2.57,0.603 c-1.452,0.221-2.892,0.33-4.323,0.33c-2.463,0-4.897-0.325-7.307-0.97c-2.93-0.79-4.57-1.83-4.69-3.26 c-0.07-0.98,1.23-2.09,3.71-3.13l1.63-0.65l1.29-0.46l8.16-2.93l1.24-0.4L45,50.604V28.83 M45,27.43 c-0.319,0-0.631,0.109-0.883,0.314C43.79,28.009,43.6,28.409,43.6,28.83v20.752l-1.887,0.604l-1.243,0.401l-8.203,2.945 l-1.287,0.459c-0.016,0.006-0.032,0.012-0.048,0.018l-1.63,0.65c-3.216,1.349-4.71,2.827-4.588,4.53 c0.229,2.725,3.375,3.879,5.722,4.512c2.525,0.676,5.105,1.019,7.671,1.019c1.496,0,3.022-0.116,4.534-0.346 c0.029-0.004,0.057-0.01,0.086-0.016c0.027-0.006,0.369-0.08,0.874-0.196v1.479c0,0.6,0.382,1.134,0.951,1.326l7.01,2.374 c0.146,0.049,0.297,0.074,0.449,0.074c0.164,0,0.328-0.029,0.483-0.086l19.69-7.246c1.131-0.452,4.455-1.782,4.202-4.602 c-0.159-2.426-2.971-3.607-5.077-4.285c-2.497-0.844-5.152-1.275-7.873-1.275c-0.411,0-0.819,0.01-1.222,0.029 C59.636,52,56.859,52.483,54,53.383c-0.017,0.005-0.034,0.011-0.051,0.017l-0.538,0.193V37.238c0-0.444,0.186-0.739,0.31-0.739 c0.023,0,0.049,0.003,0.079,0.01c0.423,0.09,0.861,0.852,0.861,1.971l0.03,10.444c0.002,0.539,0.312,1.029,0.799,1.26 c1.6,0.76,3,1.13,4.28,1.13c1.316,0,2.511-0.397,3.553-1.181c2.127-1.486,3.298-3.929,3.298-6.883 c0-3.297-0.844-5.947-2.508-7.878c-1.504-2.004-4.043-3.576-7.982-4.944c-4.28-1.382-7.615-2.295-10.843-2.968 C45.191,27.44,45.095,27.43,45,27.43L45,27.43z"/><path fill="#472b29" d="M44,56.653v0.666c-1.138,0.447-3.514,1.374-4.572,1.734c-0.672,0.229-2.148,0.621-3.241,0.699 c-0.085,0.005-0.168,0.008-0.25,0.008c-0.253,0-0.492-0.023-0.705-0.057c0.005-0.002,0.009-0.003,0.014-0.005l1.734-0.641 l3.136-1.062L44,56.653 M45,55.25l-5.21,1.8l-3.13,1.06l-1.76,0.65c-0.52,0.19-0.97,0.46-1.3,0.65c-0.33,0.33-0.22,0.77,0.33,0.98 c0,0,0.882,0.37,2.007,0.37c0.102,0,0.207-0.003,0.313-0.01c1.26-0.09,2.842-0.526,3.5-0.75c1.452-0.494,5.25-2,5.25-2L45,55.25 L45,55.25z"/><path fill="#472b29" d="M65.144,57.098c0.315,0,0.611,0.027,0.849,0.058l-1.443,0.547l-0.675,0.252l-8.396,3.178L53,62.059 v-1.082c0.109-0.034,0.222-0.069,0.337-0.105c0.505-0.157,1.037-0.324,1.415-0.459c1.279-0.45,5.378-1.879,5.388-1.883 l2.728-0.986c0.008-0.003,0.819-0.282,1.632-0.405C64.698,57.112,64.915,57.098,65.144,57.098 M65.144,56.098 c-0.254,0-0.519,0.015-0.784,0.052c-0.93,0.14-1.82,0.45-1.82,0.45l-2.74,0.99c0,0-4.1,1.43-5.38,1.88 c-0.67,0.24-1.81,0.57-2.42,0.78v3.25l3.83-1.43l8.4-3.18l0.67-0.25l1.74-0.66c0.98-0.33,1.44-0.66,1.31-1.05 c-0.13-0.33-0.49-0.49-1.17-0.65C66.78,56.28,66.039,56.098,65.144,56.098L65.144,56.098z"/><path fill="#472b29" d="M40.462,57.51c-0.024,0-0.05-0.004-0.074-0.012l-4.745-1.48c-0.132-0.041-0.205-0.181-0.164-0.313 c0.041-0.133,0.183-0.205,0.313-0.164l4.745,1.48c0.132,0.041,0.205,0.181,0.164,0.313C40.667,57.441,40.568,57.51,40.462,57.51z"/><rect width=".499" height="8.914" x="59.105" y="58.701" fill="#472b29" transform="rotate(-72.668 59.355 63.158)"/><rect width=".499" height="3.807" x="42.377" y="49.925" fill="#472b29" transform="rotate(-72.668 42.626 51.829)"/><rect width=".499" height="9.01" x="56.562" y="51.749" fill="#472b29" transform="rotate(-72.674 56.813 56.255)"/><path fill="#472b29" d="M72.544,61.412c-0.024,0-0.05-0.004-0.074-0.012l-4.114-1.283 c-0.132-0.041-0.205-0.181-0.164-0.313s0.182-0.206,0.313-0.164l4.114,1.283c0.132,0.041,0.205,0.181,0.164,0.313 C72.749,61.344,72.65,61.412,72.544,61.412z"/><rect width="1" height="14" x="52.01" y="54.5" fill="#472b29"/><rect width="1" height="14" x="44" y="49.75" fill="#472b29"/><path fill="#472b29" d="M66.853,59.637c-0.024,0-0.05-0.004-0.074-0.012l-2.932-0.915 c-0.132-0.041-0.205-0.181-0.164-0.313s0.181-0.205,0.313-0.164l2.932,0.915c0.132,0.041,0.205,0.181,0.164,0.313 C67.058,59.568,66.959,59.637,66.853,59.637z"/><path fill="#472b29" d="M34.181,55.55c-0.024,0-0.05-0.004-0.074-0.012l-2.563-0.8c-0.132-0.041-0.205-0.181-0.164-0.313 s0.183-0.206,0.313-0.164l2.563,0.8c0.132,0.041,0.205,0.181,0.164,0.313C34.386,55.481,34.287,55.55,34.181,55.55z"/></g></g></svg>